<mxfile host="app.diagrams.net" modified="2022-08-08T19:23:56.457Z" agent="5.0 (Windows NT 10.0; Win64; x64) AppleWebKit/537.36 (KHTML, like Gecko) Chrome/104.0.5112.81 Safari/537.36 Edg/104.0.1293.47" etag="q_GFXpFUzOXDapJ0wHud" version="20.2.3" type="github">
  <diagram id="0Tvzt9ol2-uUJ-bDU3Fr" name="Page-1">
    <mxGraphModel dx="1422" dy="790" grid="1" gridSize="10" guides="1" tooltips="1" connect="1" arrows="1" fold="1" page="1" pageScale="1" pageWidth="1169" pageHeight="827" math="0" shadow="0">
      <root>
        <mxCell id="0" />
        <mxCell id="1" parent="0" />
        <mxCell id="aKw-EBqWRxvpCI3MpewN-8" value="Generates" style="edgeStyle=orthogonalEdgeStyle;rounded=0;orthogonalLoop=1;jettySize=auto;html=1;" edge="1" parent="1" source="aKw-EBqWRxvpCI3MpewN-1" target="aKw-EBqWRxvpCI3MpewN-7">
          <mxGeometry relative="1" as="geometry" />
        </mxCell>
        <mxCell id="aKw-EBqWRxvpCI3MpewN-1" value="Model" style="rounded=1;whiteSpace=wrap;html=1;" vertex="1" parent="1">
          <mxGeometry x="420" y="360" width="120" height="60" as="geometry" />
        </mxCell>
        <mxCell id="aKw-EBqWRxvpCI3MpewN-3" value="Serves data to" style="edgeStyle=orthogonalEdgeStyle;rounded=0;orthogonalLoop=1;jettySize=auto;html=1;entryX=0.5;entryY=0;entryDx=0;entryDy=0;" edge="1" parent="1" source="aKw-EBqWRxvpCI3MpewN-2" target="aKw-EBqWRxvpCI3MpewN-1">
          <mxGeometry relative="1" as="geometry" />
        </mxCell>
        <mxCell id="aKw-EBqWRxvpCI3MpewN-5" value="Loads" style="edgeStyle=orthogonalEdgeStyle;rounded=0;orthogonalLoop=1;jettySize=auto;html=1;" edge="1" parent="1" source="aKw-EBqWRxvpCI3MpewN-2" target="aKw-EBqWRxvpCI3MpewN-4">
          <mxGeometry relative="1" as="geometry" />
        </mxCell>
        <mxCell id="aKw-EBqWRxvpCI3MpewN-2" value="Dataset" style="rounded=1;whiteSpace=wrap;html=1;" vertex="1" parent="1">
          <mxGeometry x="420" y="150" width="120" height="60" as="geometry" />
        </mxCell>
        <mxCell id="aKw-EBqWRxvpCI3MpewN-4" value="Database" style="shape=cylinder3;whiteSpace=wrap;html=1;boundedLbl=1;backgroundOutline=1;size=15;" vertex="1" parent="1">
          <mxGeometry x="670" y="140" width="60" height="80" as="geometry" />
        </mxCell>
        <mxCell id="aKw-EBqWRxvpCI3MpewN-6" value="trains" style="edgeStyle=orthogonalEdgeStyle;rounded=0;orthogonalLoop=1;jettySize=auto;html=1;" edge="1" parent="1" source="aKw-EBqWRxvpCI3MpewN-1" target="aKw-EBqWRxvpCI3MpewN-1">
          <mxGeometry relative="1" as="geometry" />
        </mxCell>
        <mxCell id="aKw-EBqWRxvpCI3MpewN-7" value="results" style="shape=document;whiteSpace=wrap;html=1;boundedLbl=1;" vertex="1" parent="1">
          <mxGeometry x="420" y="500" width="120" height="80" as="geometry" />
        </mxCell>
      </root>
    </mxGraphModel>
  </diagram>
</mxfile>
